<svg xmlns="http://www.w3.org/2000/svg" xmlns:xlink="http://www.w3.org/1999/xlink" width="2379" zoomAndPan="magnify" viewBox="0 0 1784.88 1784.99993" height="2379" preserveAspectRatio="xMidYMid meet" version="1.0"><defs><clipPath id="5691cf4048"><path d="M 217.152344 180.65625 L 1567.648438 180.65625 L 1567.648438 1664.8125 L 217.152344 1664.8125 Z M 217.152344 180.65625 " clip-rule="nonzero"/></clipPath></defs><g clip-path="url(#5691cf4048)"><path fill="#2c7da0" d="M 1493.433594 873.511719 L 1274.652344 873.511719 C 1223.585938 873.511719 1172.539062 832.746094 1172.539062 778.417969 L 1172.539062 277.675781 C 1172.539062 224.101562 1129.117188 180.679688 1075.542969 180.679688 L 715.261719 180.679688 C 661.710938 180.679688 618.289062 224.101562 618.289062 277.675781 L 618.289062 778.417969 C 618.289062 825.964844 574.519531 873.511719 516.175781 873.511719 L 290.09375 873.511719 C 231.75 873.511719 195.28125 941.421875 231.75 982.191406 L 815.195312 1634.257812 C 851.644531 1675.027344 924.585938 1675.027344 968.335938 1634.257812 L 1551.777344 982.191406 C 1588.226562 934.644531 1559.078125 873.511719 1493.433594 873.511719 " fill-opacity="1" fill-rule="nonzero"/></g></svg>