<svg xmlns="http://www.w3.org/2000/svg" xmlns:xlink="http://www.w3.org/1999/xlink" width="404" zoomAndPan="magnify" viewBox="0 0 303 323.999988" height="432" preserveAspectRatio="xMidYMid meet" version="1.0"><defs><filter x="0%" y="0%" width="100%" height="100%" id="68ade9e6e2"><feColorMatrix values="0 0 0 0 1 0 0 0 0 1 0 0 0 0 1 0 0 0 1 0" color-interpolation-filters="sRGB"/></filter><clipPath id="5d7cbd7ef5"><path d="M 38.890625 0 L 300 0 L 300 324 L 38.890625 324 Z M 38.890625 0 " clip-rule="nonzero"/></clipPath><mask id="a4d0a9dbd4"><g filter="url(#68ade9e6e2)"><rect x="-30.3" width="363.6" fill="#000000" y="-32.399999" height="388.799985" fill-opacity="0.58"/></g></mask><clipPath id="3287520af4"><path d="M 4 9 L 84 9 L 84 89 L 4 89 Z M 4 9 " clip-rule="nonzero"/></clipPath><clipPath id="0d7f95a4a3"><path d="M 33.085938 55.296875 L 33.191406 55.40625 C 51.148438 73.382812 70.460938 83.316406 76.332031 77.589844 C 82.199219 71.867188 72.417969 52.667969 54.476562 34.699219 C 55.132812 35.335938 55.785156 35.980469 56.4375 36.636719 C 77.171875 57.5 88.488281 79.945312 81.707031 86.769531 C 74.925781 93.589844 52.621094 82.207031 31.882812 61.339844 C 30.972656 60.425781 30.082031 59.503906 29.207031 58.582031 C 29.730469 58.277344 30.230469 57.933594 30.707031 57.554688 C 31.441406 56.972656 32.121094 56.320312 32.765625 55.636719 Z M 6.613281 11.207031 C 10.457031 7.339844 19.296875 9.328125 30.007812 15.574219 C 21.4375 10.84375 14.449219 9.425781 11.308594 12.488281 C 7.769531 15.941406 9.929688 24.304688 16.144531 34.34375 C 14.71875 35.019531 13.441406 35.925781 12.335938 37.0625 C 5.050781 25.253906 2.496094 15.351562 6.613281 11.207031 Z M 6.613281 11.207031 " clip-rule="evenodd"/></clipPath><radialGradient gradientTransform="matrix(0.996908, 0, 0, 1.003092, 4.55713, 5.494012)" gradientUnits="userSpaceOnUse" r="39.636327" cx="39.72569" id="b5476b1177" cy="43.360157" fx="39.72569" fy="43.360157"><stop stop-opacity="1" stop-color="rgb(7.499695%, 4.699707%, 5.499268%)" offset="0"/><stop stop-opacity="1" stop-color="rgb(7.499695%, 4.699707%, 5.499268%)" offset="1"/></radialGradient><clipPath id="f94fbdd71e"><path d="M 4 5 L 84 5 L 84 86 L 4 86 Z M 4 5 " clip-rule="nonzero"/></clipPath><clipPath id="a4fd94c847"><path d="M 33.820312 38.210938 C 51.597656 20.628906 70.53125 10.992188 76.332031 16.652344 C 82.199219 22.375 72.417969 41.574219 54.476562 59.542969 C 55.132812 58.90625 55.785156 58.261719 56.4375 57.605469 C 77.171875 36.742188 88.488281 14.296875 81.707031 7.472656 C 74.925781 0.652344 52.621094 12.035156 31.882812 32.902344 C 31.210938 33.578125 30.542969 34.261719 29.890625 34.941406 C 30.167969 35.105469 30.433594 35.277344 30.699219 35.464844 L 30.789062 35.527344 C 34.441406 32.003906 43.667969 23.371094 53.019531 16.808594 C 65.054688 8.359375 83.273438 0.839844 82.574219 14.875 C 82.574219 14.875 82.382812 7.917969 75.578125 8.1875 C 69.035156 8.441406 53.578125 14.835938 31.652344 36.195312 C 32 36.484375 32.335938 36.789062 32.660156 37.109375 L 33.4375 37.875 Z M 6.613281 83.03125 C 10.457031 86.902344 19.296875 84.914062 30.007812 78.664062 C 21.4375 83.398438 14.449219 84.816406 11.308594 81.753906 C 7.011719 77.558594 11.117188 66.128906 20.679688 53.246094 C 19.613281 52.957031 18.65625 52.40625 17.875 51.667969 C 15.03125 56.050781 6.765625 68.855469 6.414062 76.546875 C 6.058594 84.371094 13.148438 84.507812 13.148438 84.507812 C 7.289062 84.507812 4.230469 80.726562 6.242188 72.542969 C 7.929688 65.675781 15.128906 54.566406 17.398438 51.171875 C 17.222656 50.964844 17.058594 50.75 16.910156 50.527344 L 16.515625 51.078125 C 10.996094 58.789062 -0.0078125 76.375 6.613281 83.03125 Z M 6.613281 83.03125 " clip-rule="evenodd"/></clipPath><radialGradient gradientTransform="matrix(0.996908, 0, 0, 1.003092, 4.55713, 5.494012)" gradientUnits="userSpaceOnUse" r="39.658548" cx="39.681087" id="bc69c1e2cb" cy="39.636009" fx="39.681087" fy="39.636009"><stop stop-opacity="1" stop-color="rgb(7.499695%, 4.699707%, 5.499268%)" offset="0"/><stop stop-opacity="1" stop-color="rgb(7.499695%, 4.699707%, 5.499268%)" offset="1"/></radialGradient><clipPath id="8e73e56722"><path d="M 31 15 L 37 15 L 37 21 L 31 21 Z M 31 15 " clip-rule="nonzero"/></clipPath><clipPath id="805e6ce491"><path d="M 33.933594 15.753906 C 35.355469 15.753906 36.511719 16.914062 36.511719 18.34375 C 36.511719 19.777344 35.355469 20.9375 33.933594 20.9375 C 32.511719 20.9375 31.359375 19.777344 31.359375 18.34375 C 31.359375 16.914062 32.511719 15.753906 33.933594 15.753906 " clip-rule="evenodd"/></clipPath><radialGradient gradientTransform="matrix(0.996908, 0, 0, 1.003092, 4.55713, 5.494012)" gradientUnits="userSpaceOnUse" r="2.583874" cx="29.468921" id="ad8a73c97b" cy="12.810642" fx="29.468921" fy="12.810642"><stop stop-opacity="1" stop-color="rgb(7.499695%, 4.699707%, 5.499268%)" offset="0"/><stop stop-opacity="1" stop-color="rgb(7.499695%, 4.699707%, 5.499268%)" offset="1"/></radialGradient><clipPath id="5f0adc8328"><path d="M 32 73 L 38 73 L 38 79 L 32 79 Z M 32 73 " clip-rule="nonzero"/></clipPath><clipPath id="1ca1321f49"><path d="M 34.652344 73.460938 C 36.078125 73.460938 37.230469 74.621094 37.230469 76.054688 C 37.230469 77.484375 36.078125 78.644531 34.652344 78.644531 C 33.230469 78.644531 32.078125 77.484375 32.078125 76.054688 C 32.078125 74.621094 33.230469 73.460938 34.652344 73.460938 " clip-rule="evenodd"/></clipPath><radialGradient gradientTransform="matrix(0.996908, 0, 0, 1.003092, 4.55713, 5.494012)" gradientUnits="userSpaceOnUse" r="2.584191" cx="30.190482" id="9fbadd2dbb" cy="70.341552" fx="30.190482" fy="70.341552"><stop stop-opacity="1" stop-color="rgb(7.499695%, 4.699707%, 5.499268%)" offset="0"/><stop stop-opacity="1" stop-color="rgb(7.499695%, 4.699707%, 5.499268%)" offset="1"/></radialGradient><clipPath id="4b2e6c3d73"><path d="M 16 41 L 29 41 L 29 53 L 16 53 Z M 16 41 " clip-rule="nonzero"/></clipPath><clipPath id="bdc7b5abbf"><path d="M 22.40625 41.117188 C 25.535156 41.117188 28.070312 43.667969 28.070312 46.8125 C 28.070312 49.960938 25.535156 52.507812 22.40625 52.507812 C 19.28125 52.507812 16.75 49.960938 16.75 46.8125 C 16.75 43.667969 19.28125 41.117188 22.40625 41.117188 " clip-rule="evenodd"/></clipPath><radialGradient gradientTransform="matrix(0.996908, 0, 0, 1.003092, 4.55713, 5.494012)" gradientUnits="userSpaceOnUse" r="5.677729" cx="17.906488" id="07461fb26f" cy="41.191986" fx="17.906488" fy="41.191986"><stop stop-opacity="1" stop-color="rgb(7.499695%, 4.699707%, 5.499268%)" offset="0"/><stop stop-opacity="1" stop-color="rgb(7.499695%, 4.699707%, 5.499268%)" offset="1"/></radialGradient><clipPath id="59df9ca223"><rect x="0" width="90" y="0" height="94"/></clipPath></defs><g clip-path="url(#5d7cbd7ef5)"><path fill="#012a4a" d="M 289.148438 74.074219 C 248.632812 97.527344 208.140625 121.023438 167.382812 144.03125 C 159.265625 148.589844 156.015625 153.625 156.140625 163.269531 C 156.703125 209.679688 156.40625 256.113281 156.386719 302.519531 C 156.386719 313.199219 148.046875 323.214844 138.953125 323.578125 C 129.777344 323.96875 120.777344 313.347656 120.777344 302.046875 C 120.757812 249.050781 121.054688 196.0625 120.535156 143.066406 C 120.4375 133.421875 123.761719 128.441406 131.898438 123.859375 C 165.5625 104.972656 198.824219 85.394531 232.210938 66.011719 C 235.609375 64.011719 238.796875 61.667969 243.503906 58.5625 C 232.308594 52.007812 222.714844 45.890625 212.601562 40.8125 C 210.117188 39.558594 205.421875 40.886719 202.585938 42.511719 C 177.027344 57.109375 151.425781 71.757812 60.136719 126.15625 L 38.933594 97.742188 C 147.582031 33.1875 174.710938 17.527344 201.980469 2.0625 C 205.652344 -0.0078125 212.484375 0.015625 216.179688 2.042969 C 240.667969 15.480469 264.707031 29.683594 288.828125 43.746094 C 302.296875 51.605469 302.511719 66.308594 289.148438 74.074219 Z M 289.148438 74.074219 " fill-opacity="1" fill-rule="nonzero"/></g><path fill="#012a4a" d="M 197.976562 167.976562 C 196.804688 168.667969 195.527344 169.730469 194.472656 170.925781 L 194.472656 210.769531 C 229.046875 190.769531 261.285156 172.238281 293.269531 153.328125 C 293.5 153.195312 293.714844 153.015625 293.929688 152.839844 L 293.929688 112.398438 C 260.527344 131.671875 229.175781 149.710938 197.976562 167.976562 Z M 197.976562 167.976562 " fill-opacity="1" fill-rule="nonzero"/><path fill="#012a4a" d="M 196.640625 250.4375 C 195.890625 250.878906 195.140625 251.554688 194.472656 252.347656 L 194.472656 291.332031 C 195.050781 291.398438 195.445312 291.414062 195.734375 291.25 C 228.171875 272.726562 260.609375 254.195312 292.925781 235.457031 C 293.261719 235.265625 293.59375 235.027344 293.9375 234.773438 L 293.9375 194.371094 C 260.082031 213.816406 228.285156 232.019531 196.640625 250.4375 Z M 196.640625 250.4375 " fill-opacity="1" fill-rule="nonzero"/><g mask="url(#a4d0a9dbd4)"><g transform="matrix(1, 0, 0, 1, 0, 143)"><g clip-path="url(#59df9ca223)"><g clip-path="url(#3287520af4)"><g clip-path="url(#0d7f95a4a3)"><path fill="url(#b5476b1177)" d="M 2.496094 7.339844 L 2.496094 93.589844 L 88.488281 93.589844 L 88.488281 7.339844 Z M 2.496094 7.339844 " fill-rule="nonzero"/></g></g><g clip-path="url(#f94fbdd71e)"><g clip-path="url(#a4fd94c847)"><path fill="url(#bc69c1e2cb)" d="M 0 0.652344 L 0 86.902344 L 88.488281 86.902344 L 88.488281 0.652344 Z M 0 0.652344 " fill-rule="nonzero"/></g></g><g clip-path="url(#8e73e56722)"><g clip-path="url(#805e6ce491)"><path fill="url(#ad8a73c97b)" d="M 31.359375 15.753906 L 31.359375 20.9375 L 36.511719 20.9375 L 36.511719 15.753906 Z M 31.359375 15.753906 " fill-rule="nonzero"/></g></g><g clip-path="url(#5f0adc8328)"><g clip-path="url(#1ca1321f49)"><path fill="url(#9fbadd2dbb)" d="M 32.078125 73.460938 L 32.078125 78.644531 L 37.230469 78.644531 L 37.230469 73.460938 Z M 32.078125 73.460938 " fill-rule="nonzero"/></g></g><g clip-path="url(#4b2e6c3d73)"><g clip-path="url(#bdc7b5abbf)"><path fill="url(#07461fb26f)" d="M 16.75 41.117188 L 16.75 52.507812 L 28.070312 52.507812 L 28.070312 41.117188 Z M 16.75 41.117188 " fill-rule="nonzero"/></g></g></g></g></g></svg>