<svg xmlns="http://www.w3.org/2000/svg" xmlns:xlink="http://www.w3.org/1999/xlink" width="2379" zoomAndPan="magnify" viewBox="0 0 1784.88 1784.99993" height="2379" preserveAspectRatio="xMidYMid meet" version="1.0"><defs><clipPath id="48136ce6f1"><path d="M 217.105469 180.722656 L 1567.601562 180.722656 L 1567.601562 1664.878906 L 217.105469 1664.878906 Z M 217.105469 180.722656 " clip-rule="nonzero"/></clipPath></defs><g clip-path="url(#48136ce6f1)"><path fill="#2c7da0" d="M 291.320312 972.019531 L 510.101562 972.019531 C 561.171875 972.019531 612.214844 1012.789062 612.214844 1067.117188 L 612.214844 1567.859375 C 612.214844 1621.433594 655.640625 1664.855469 709.210938 1664.855469 L 1069.492188 1664.855469 C 1123.042969 1664.855469 1166.46875 1621.433594 1166.46875 1567.859375 L 1166.46875 1067.117188 C 1166.46875 1019.570312 1210.238281 972.019531 1268.582031 972.019531 L 1494.660156 972.019531 C 1553.003906 972.019531 1589.476562 904.109375 1553.003906 863.34375 L 969.558594 211.273438 C 933.113281 170.507812 860.171875 170.507812 816.421875 211.273438 L 232.976562 863.34375 C 196.527344 910.890625 225.679688 972.019531 291.320312 972.019531 " fill-opacity="1" fill-rule="nonzero"/></g></svg>